<?xml version="1.0" encoding="UTF-8"?>
<svg id="Layer_2" data-name="Layer 2" xmlns="http://www.w3.org/2000/svg" xmlns:xlink="http://www.w3.org/1999/xlink" viewBox="0 0 360 180">
  <defs>
    <style>
      .cls-1 {
        fill: #63adec;
      }

      .cls-1, .cls-2, .cls-3 {
        stroke-width: 0px;
      }

      .cls-2 {
        fill: none;
      }

      .cls-4 {
        clip-path: url(#clippath-1);
      }

      .cls-3 {
        fill: #22233c;
      }

      .cls-5 {
        clip-path: url(#clippath);
      }
    </style>
    <clipPath id="clippath">
      <rect class="cls-2" width="360" height="180"/>
    </clipPath>
    <clipPath id="clippath-1">
      <rect class="cls-2" y="18" width="360" height="149.19"/>
    </clipPath>
  </defs>
  <g id="Layer_2-2" data-name="Layer 2">
    <g class="cls-5">
      <path class="cls-3" d="m147.63,113.34h0c0,5.52-4.5,9.99-9.99,9.99h-35.28c-5.52,0-9.99-4.5-9.99-9.99h0c0-5.52,4.5-9.99,9.99-9.99h35.28c5.52,0,9.99,4.5,9.99,9.99Z"/>
      <path class="cls-3" d="m147.69,59.67h0c0,5.52-4.5,9.99-9.99,9.99h-35.28c-5.52,0-9.99-4.5-9.99-9.99h0c0-5.52,4.5-9.99,9.99-9.99h35.28c5.52,0,9.99,4.5,9.99,9.99Z"/>
      <path class="cls-3" d="m136.74,86.55h0c0,5.52-4.5,9.99-9.99,9.99h-24.33c-5.52,0-9.99-4.5-9.99-9.99h0c0-5.52,4.5-9.99,9.99-9.99h24.33c5.52,0,9.99,4.5,9.99,9.99Z"/>
      <path class="cls-3" d="m70.17,50.25h0c-5.13-2.64-11.43-.6-14.04,4.59h0l-17.7,34.8-17.55-34.44c-2.64-5.13-8.94-7.17-14.1-4.59-5.13,2.64-7.17,8.94-4.53,14.1h0l26.88,52.68c2.64,5.13,8.94,7.17,14.04,4.53h0c1.62-.78,2.94-1.95,3.9-3.45.3-.39.54-.78.78-1.23l26.94-52.89c2.64-5.16.6-11.46-4.59-14.1h-.03Z"/>
      <path class="cls-3" d="m336.93,86.16l19.38-19.38c3.66-4.23,3.21-10.65-.99-14.28-3.84-3.33-9.57-3.33-13.38,0l-19.32,19.32-19.38-19.32c-3.96-3.96-10.35-3.96-14.28,0h0c-3.96,3.96-3.96,10.35,0,14.28h0l19.32,19.38-19.32,19.32c-3.96,3.96-3.96,10.38,0,14.34h0c3.96,3.96,10.35,3.96,14.28,0h0l19.38-19.32,19.32,19.32c4.11,3.84,10.5,3.6,14.34-.48,3.66-3.9,3.66-9.96,0-13.86l-19.38-19.32h.03Z"/>
      <path class="cls-1" d="m240.72,124.02c-21.03-.06-38.04-17.07-38.01-38.1.06-21.03,17.07-38.04,38.1-38.01s38.04,17.07,38.01,38.1c0,10.11-4.05,19.77-11.16,26.88h0c-7.11,7.17-16.83,11.16-26.94,11.13Zm0-57.87c-10.92,0-19.8,8.88-19.8,19.8s8.88,19.8,19.8,19.8c5.28,0,10.29-2.1,14.01-5.82h0c7.77-7.77,7.71-20.31,0-27.99-3.72-3.72-8.73-5.82-14.01-5.82v.03Z"/>
      <g class="cls-4">
        <path class="cls-1" d="m185.01,21.33c-1.86-1.65-4.23-2.58-6.72-2.58h-20.04c-5.61,0-10.14,4.53-10.14,10.14s4.53,10.14,10.14,10.14h9.72v74.4c0,5.76,4.68,10.44,10.44,10.44h.06c5.76,0,10.44-4.68,10.44-10.44h0V29.43c0-3.12-1.41-6.09-3.84-8.1h-.06Z"/>
      </g>
      <g>
        <path class="cls-3" d="m95.04,148.38c.78-.39,1.65-.57,2.52-.57,1.08-.06,2.13.24,3,.81.93.54,1.65,1.35,2.13,2.34,1.02,2.22,1.02,4.8,0,7.02-.48.96-1.2,1.8-2.13,2.37-.87.57-1.95.87-3,.81-.87.06-1.74-.15-2.52-.54-.69-.39-1.26-.87-1.74-1.5v1.83h-3.3v-17.37h3.3v6.24c.45-.69,1.02-1.17,1.74-1.5v.06Zm4.62,4.02c-.3-.54-.72-.96-1.26-1.32-.54-.3-1.11-.45-1.71-.45s-1.17.15-1.65.48c-.54.3-1.02.78-1.32,1.32-.57,1.32-.57,2.76,0,4.08.33.54.78,1.02,1.32,1.35.48.3,1.08.45,1.65.45,1.26,0,2.37-.72,2.97-1.8.33-.63.54-1.35.48-2.07,0-.72-.15-1.41-.48-2.04h0Z"/>
        <path class="cls-3" d="m121.47,147.99v12.99h-3.33v-1.65c-.45.57-.96,1.08-1.65,1.35-1.59.63-3.33.57-4.89-.18-.78-.45-1.41-1.11-1.83-1.89-.48-.93-.69-1.98-.69-3v-7.62h3.3v7.17c-.06.87.24,1.71.78,2.37.54.57,1.32.87,2.07.81.78.06,1.56-.24,2.13-.81.54-.69.81-1.5.78-2.37v-7.17h3.33Z"/>
        <path class="cls-3" d="m128.19,145.92c-.39-.33-.57-.87-.57-1.41s.18-1.02.57-1.35.87-.54,1.41-.54,1.08.18,1.44.54c.39.33.57.81.57,1.35s-.18,1.08-.57,1.41-.93.54-1.44.54-1.02-.18-1.41-.54Zm3.06,2.07v12.99h-3.3v-12.99s3.3,0,3.3,0Z"/>
        <path class="cls-3" d="m141.06,143.64v17.37h-3.3v-17.37h3.3Z"/>
        <path class="cls-3" d="m147.51,150.96c.48-.96,1.26-1.8,2.19-2.34.87-.57,1.95-.87,3-.81.81,0,1.65.18,2.43.54.72.33,1.35.81,1.83,1.44v-6.15h3.3v17.37h-3.3v-1.95c-.45.69-1.02,1.2-1.74,1.56-.78.39-1.71.57-2.58.57-1.08.06-2.07-.24-2.97-.81-.93-.57-1.71-1.41-2.19-2.37-1.02-2.22-1.02-4.8,0-7.02l.03-.03Zm8.97,1.5c-.3-.54-.72-1.02-1.26-1.32-.48-.33-1.11-.48-1.71-.48s-1.17.15-1.71.45c-.54.33-.93.78-1.26,1.32-.63,1.26-.63,2.82,0,4.08.3.57.72,1.02,1.26,1.35.48.33,1.11.48,1.71.48s1.17-.15,1.71-.45c.54-.33.96-.78,1.26-1.35.33-.63.54-1.32.48-2.04,0-.72-.15-1.41-.48-2.04h0Z"/>
        <path class="cls-3" d="m181.59,150.69h-2.28v10.29h-3.33v-10.29h-1.44v-2.7h1.44v-.63c0-1.59.48-2.82,1.35-3.54s2.28-1.11,4.11-1.08v2.76c-.57-.06-1.17.09-1.65.45-.33.24-.48.78-.48,1.5v.54h2.28v2.7h0Z"/>
        <path class="cls-3" d="m186.96,150.96c.45-.96,1.2-1.8,2.13-2.34.87-.57,1.95-.87,3-.81,1.65-.06,3.24.72,4.26,2.04v-1.83h3.33v12.99h-3.33v-1.89c-.45.63-1.02,1.17-1.74,1.5-.78.39-1.71.57-2.58.57-1.08.06-2.07-.24-2.97-.81-.93-.57-1.65-1.41-2.13-2.37-1.11-2.22-1.11-4.8,0-7.02h0l.03-.03Zm8.97,1.5c-.3-.54-.78-1.02-1.32-1.32-.48-.33-1.11-.48-1.71-.48s-1.17.15-1.71.45c-.48.33-.93.78-1.26,1.32-.57,1.32-.57,2.76,0,4.08.3.57.72,1.08,1.32,1.35.48.33,1.08.48,1.65.48s1.17-.15,1.71-.45c.54-.33.96-.81,1.32-1.35.3-.63.48-1.32.45-2.04,0-.72-.15-1.41-.45-2.04h0Z"/>
        <path class="cls-3" d="m208.29,160.65c-.78-.33-1.44-.93-1.98-1.59-.48-.63-.78-1.41-.81-2.19h3.3c.06.48.33.96.72,1.26.93.57,2.13.63,3.09.15.33-.24.54-.57.54-.96,0-.45-.3-.81-.69-.96-.69-.3-1.35-.54-2.04-.69-.81-.18-1.59-.45-2.37-.72-.63-.24-1.17-.63-1.59-1.17-.48-.57-.72-1.32-.69-2.07,0-.72.24-1.41.63-1.98.48-.63,1.08-1.11,1.8-1.41.87-.33,1.8-.54,2.7-.48,1.35-.06,2.67.33,3.72,1.17.93.78,1.44,1.89,1.5,3.09h-3.15c-.06-.48-.24-.93-.63-1.2-.45-.33-1.02-.48-1.56-.48-.48,0-.93.09-1.35.33-.3.18-.48.54-.48.93,0,.45.3.81.69,1.02.69.3,1.35.48,2.04.69l2.34.72c.57.24,1.11.63,1.56,1.17.48.57.72,1.32.72,2.07s-.24,1.41-.63,1.98c-.45.63-1.08,1.11-1.8,1.41-.87.33-1.8.54-2.7.48-.96.06-1.95-.15-2.85-.54l-.03-.03Z"/>
        <path class="cls-3" d="m226.08,150.69v6.24c-.06.33.06.69.3.96.3.18.69.33,1.08.3h1.56v2.76h-2.07c-2.76,0-4.11-1.35-4.11-4.02v-6.24h-1.56v-2.7h1.56v-3.21h3.3v3.21h2.91v2.7h-2.97Z"/>
        <path class="cls-3" d="m246.63,155.46h-9.51c0,.81.33,1.65.96,2.22.57.54,1.35.81,2.13.78,1.11.09,2.13-.54,2.61-1.56h3.54c-.39,1.26-1.17,2.34-2.19,3.09-2.19,1.41-4.95,1.56-7.26.33-.96-.54-1.8-1.35-2.34-2.34-1.11-2.22-1.11-4.86,0-7.08.54-.96,1.32-1.8,2.28-2.34,1.02-.57,2.22-.87,3.39-.81,1.17-.06,2.34.24,3.33.78.96.54,1.74,1.32,2.28,2.28.54,1.02.81,2.19.81,3.36,0,.45-.06.81-.09,1.26l.06.03Zm-3.36-2.19c.06-.78-.3-1.56-.93-2.04-.63-.54-1.41-.78-2.19-.78s-1.5.24-2.04.78c-.57.54-.93,1.26-1.02,2.04h6.18Z"/>
        <path class="cls-3" d="m257.31,148.38c.72-.39,1.56-.57,2.37-.57v3.45h-.87c-1.08,0-1.83.24-2.34.72-.54.48-.81,1.35-.81,2.58v6.45h-3.24v-12.99h3.24v2.04c.39-.69.96-1.26,1.65-1.65v-.03Z"/>
        <path class="cls-3" d="m270,158.37c0,2.04-1.59,3.63-3.69,3.63s-3.69-1.59-3.69-3.63,1.65-3.6,3.69-3.6,3.69,1.59,3.69,3.6Zm-6.45,0c0,1.59,1.17,2.85,2.82,2.85,1.56,0,2.7-1.26,2.7-2.85s-1.17-2.85-2.76-2.85-2.76,1.32-2.76,2.85Zm2.22,1.89h-.81v-3.6c.33-.06.78-.09,1.35-.09.69,0,.96.09,1.26.24.18.15.33.45.33.78,0,.39-.3.69-.72.81v.06c.33.15.54.39.69.87.09.54.18.78.24.87h-.87s-.18-.45-.3-.87c-.06-.39-.3-.57-.72-.57h-.39v1.5h-.06Zm0-2.04h.39c.45,0,.81-.15.81-.54,0-.33-.24-.54-.78-.54-.24,0-.39,0-.45.06v1.02h.03Z"/>
      </g>
    </g>
  </g>
</svg>