<?xml version="1.0" encoding="UTF-8"?>
<svg id="Layer_2" data-name="Layer 2" xmlns="http://www.w3.org/2000/svg" xmlns:xlink="http://www.w3.org/1999/xlink" viewBox="0 0 240 120">
  <defs>
    <style>
      .cls-1 {
        fill: none;
      }

      .cls-1, .cls-2 {
        stroke-width: 0px;
      }

      .cls-3 {
        fill: #fff;
        stroke: #22233c;
        stroke-miterlimit: 10;
      }

      .cls-2 {
        fill: #22233c;
      }

      .cls-4 {
        clip-path: url(#clippath);
      }
    </style>
    <clipPath id="clippath">
      <rect class="cls-1" width="240" height="120"/>
    </clipPath>
  </defs>
  <g id="Layer_2-2" data-name="Layer 2">
    <g class="cls-4">
      <path class="cls-2" d="m98.42,75.56h0c0,3.68-3,6.66-6.66,6.66h-23.52c-3.68,0-6.66-3-6.66-6.66h0c0-3.68,3-6.66,6.66-6.66h23.52c3.68,0,6.66,3,6.66,6.66Z"/>
      <path class="cls-2" d="m98.46,39.78h0c0,3.68-3,6.66-6.66,6.66h-23.52c-3.68,0-6.66-3-6.66-6.66h0c0-3.68,3-6.66,6.66-6.66h23.52c3.68,0,6.66,3,6.66,6.66Z"/>
      <path class="cls-2" d="m91.16,57.7h0c0,3.68-3,6.66-6.66,6.66h-16.22c-3.68,0-6.66-3-6.66-6.66h0c0-3.68,3-6.66,6.66-6.66h16.22c3.68,0,6.66,3,6.66,6.66Z"/>
      <path class="cls-2" d="m46.78,33.5h0c-3.42-1.76-7.62-.4-9.36,3.06h0l-11.8,23.2-11.7-22.96c-1.76-3.42-5.96-4.78-9.4-3.06-3.42,1.76-4.78,5.96-3.02,9.4h0l17.92,35.12c1.76,3.42,5.96,4.78,9.36,3.02h0c1.08-.52,1.96-1.3,2.6-2.3.2-.26.36-.52.52-.82l17.96-35.26c1.76-3.44.4-7.64-3.06-9.4h-.02Z"/>
      <path class="cls-2" d="m224.62,57.44l12.92-12.92c2.44-2.82,2.14-7.1-.66-9.52-2.56-2.22-6.38-2.22-8.92,0l-12.88,12.88-12.92-12.88c-2.64-2.64-6.9-2.64-9.52,0h0c-2.64,2.64-2.64,6.9,0,9.52h0l12.88,12.92-12.88,12.88c-2.64,2.64-2.64,6.92,0,9.56h0c2.64,2.64,6.9,2.64,9.52,0h0l12.92-12.88,12.88,12.88c2.74,2.56,7,2.4,9.56-.32,2.44-2.6,2.44-6.64,0-9.24l-12.92-12.88h.02Z"/>
      <path class="cls-3" d="m160.48,82.68c-14.02-.04-25.36-11.38-25.34-25.4.04-14.02,11.38-25.36,25.4-25.34s25.36,11.38,25.34,25.4c0,6.74-2.7,13.18-7.44,17.92h0c-4.74,4.78-11.22,7.44-17.96,7.42Zm0-38.58c-7.28,0-13.2,5.92-13.2,13.2s5.92,13.2,13.2,13.2c3.52,0,6.86-1.4,9.34-3.88h0c5.18-5.18,5.14-13.54,0-18.66-2.48-2.48-5.82-3.88-9.34-3.88v.02Z"/>
      <rect class="cls-1" y="12" width="240" height="99.46"/>
      <path class="cls-3" d="m123.34,14.22c-1.24-1.1-2.82-1.72-4.48-1.72h-13.36c-3.74,0-6.76,3.02-6.76,6.76s3.02,6.76,6.76,6.76h6.48v49.6c0,3.84,3.12,6.96,6.96,6.96h.04c3.84,0,6.96-3.12,6.96-6.96h0V19.62c0-2.08-.94-4.06-2.56-5.4h-.04Z"/>
      <g>
        <path class="cls-2" d="m63.36,98.92c.52-.26,1.1-.38,1.68-.38.72-.04,1.42.16,2,.54.62.36,1.1.9,1.42,1.56.68,1.48.68,3.2,0,4.68-.32.64-.8,1.2-1.42,1.58-.58.38-1.3.58-2,.54-.58.04-1.16-.1-1.68-.36-.46-.26-.84-.58-1.16-1v1.22h-2.2v-11.58h2.2v4.16c.3-.46.68-.78,1.16-1v.04Zm3.08,2.68c-.2-.36-.48-.64-.84-.88-.36-.2-.74-.3-1.14-.3s-.78.1-1.1.32c-.36.2-.68.52-.88.88-.38.88-.38,1.84,0,2.72.22.36.52.68.88.9.32.2.72.3,1.1.3.84,0,1.58-.48,1.98-1.2.22-.42.36-.9.32-1.38,0-.48-.1-.94-.32-1.36h0Z"/>
        <path class="cls-2" d="m80.98,98.66v8.66h-2.22v-1.1c-.3.38-.64.72-1.1.9-1.06.42-2.22.38-3.26-.12-.52-.3-.94-.74-1.22-1.26-.32-.62-.46-1.32-.46-2v-5.08h2.2v4.78c-.04.58.16,1.14.52,1.58.36.38.88.58,1.38.54.52.04,1.04-.16,1.42-.54.36-.46.54-1,.52-1.58v-4.78h2.22Z"/>
        <path class="cls-2" d="m85.46,97.28c-.26-.22-.38-.58-.38-.94s.12-.68.38-.9.58-.36.94-.36.72.12.96.36c.26.22.38.54.38.9s-.12.72-.38.94-.62.36-.96.36-.68-.12-.94-.36Zm2.04,1.38v8.66h-2.2v-8.66s2.2,0,2.2,0Z"/>
        <path class="cls-2" d="m94.04,95.76v11.58h-2.2v-11.58h2.2Z"/>
        <path class="cls-2" d="m98.34,100.64c.32-.64.84-1.2,1.46-1.56.58-.38,1.3-.58,2-.54.54,0,1.1.12,1.62.36.48.22.9.54,1.22.96v-4.1h2.2v11.58h-2.2v-1.3c-.3.46-.68.8-1.16,1.04-.52.26-1.14.38-1.72.38-.72.04-1.38-.16-1.98-.54-.62-.38-1.14-.94-1.46-1.58-.68-1.48-.68-3.2,0-4.68l.02-.02Zm5.98,1c-.2-.36-.48-.68-.84-.88-.32-.22-.74-.32-1.14-.32s-.78.1-1.14.3c-.36.22-.62.52-.84.88-.42.84-.42,1.88,0,2.72.2.38.48.68.84.9.32.22.74.32,1.14.32s.78-.1,1.14-.3c.36-.22.64-.52.84-.9.22-.42.36-.88.32-1.36,0-.48-.1-.94-.32-1.36h0Z"/>
        <path class="cls-2" d="m121.06,100.46h-1.52v6.86h-2.22v-6.86h-.96v-1.8h.96v-.42c0-1.06.32-1.88.9-2.36s1.52-.74,2.74-.72v1.84c-.38-.04-.78.06-1.1.3-.22.16-.32.52-.32,1v.36h1.52v1.8h0Z"/>
        <path class="cls-2" d="m124.64,100.64c.3-.64.8-1.2,1.42-1.56.58-.38,1.3-.58,2-.54,1.1-.04,2.16.48,2.84,1.36v-1.22h2.22v8.66h-2.22v-1.26c-.3.42-.68.78-1.16,1-.52.26-1.14.38-1.72.38-.72.04-1.38-.16-1.98-.54-.62-.38-1.1-.94-1.42-1.58-.74-1.48-.74-3.2,0-4.68h0l.02-.02Zm5.98,1c-.2-.36-.52-.68-.88-.88-.32-.22-.74-.32-1.14-.32s-.78.1-1.14.3c-.32.22-.62.52-.84.88-.38.88-.38,1.84,0,2.72.2.38.48.72.88.9.32.22.72.32,1.1.32s.78-.1,1.14-.3c.36-.22.64-.54.88-.9.2-.42.32-.88.3-1.36,0-.48-.1-.94-.3-1.36h0Z"/>
        <path class="cls-2" d="m138.86,107.1c-.52-.22-.96-.62-1.32-1.06-.32-.42-.52-.94-.54-1.46h2.2c.04.32.22.64.48.84.62.38,1.42.42,2.06.1.22-.16.36-.38.36-.64,0-.3-.2-.54-.46-.64-.46-.2-.9-.36-1.36-.46-.54-.12-1.06-.3-1.58-.48-.42-.16-.78-.42-1.06-.78-.32-.38-.48-.88-.46-1.38,0-.48.16-.94.42-1.32.32-.42.72-.74,1.2-.94.58-.22,1.2-.36,1.8-.32.9-.04,1.78.22,2.48.78.62.52.96,1.26,1,2.06h-2.1c-.04-.32-.16-.62-.42-.8-.3-.22-.68-.32-1.04-.32-.32,0-.62.06-.9.22-.2.12-.32.36-.32.62,0,.3.2.54.46.68.46.2.9.32,1.36.46l1.56.48c.38.16.74.42,1.04.78.32.38.48.88.48,1.38s-.16.94-.42,1.32c-.3.42-.72.74-1.2.94-.58.22-1.2.36-1.8.32-.64.04-1.3-.1-1.9-.36l-.02-.02Z"/>
        <path class="cls-2" d="m150.72,100.46v4.16c-.04.22.04.46.2.64.2.12.46.22.72.2h1.04v1.84h-1.38c-1.84,0-2.74-.9-2.74-2.68v-4.16h-1.04v-1.8h1.04v-2.14h2.2v2.14h1.94v1.8h-1.98Z"/>
        <path class="cls-2" d="m164.42,103.64h-6.34c0,.54.22,1.1.64,1.48.38.36.9.54,1.42.52.74.06,1.42-.36,1.74-1.04h2.36c-.26.84-.78,1.56-1.46,2.06-1.46.94-3.3,1.04-4.84.22-.64-.36-1.2-.9-1.56-1.56-.74-1.48-.74-3.24,0-4.72.36-.64.88-1.2,1.52-1.56.68-.38,1.48-.58,2.26-.54.78-.04,1.56.16,2.22.52.64.36,1.16.88,1.52,1.52.36.68.54,1.46.54,2.24,0,.3-.04.54-.06.84l.04.02Zm-2.24-1.46c.04-.52-.2-1.04-.62-1.36-.42-.36-.94-.52-1.46-.52s-1,.16-1.36.52c-.38.36-.62.84-.68,1.36h4.12Z"/>
        <path class="cls-2" d="m171.54,98.92c.48-.26,1.04-.38,1.58-.38v2.3h-.58c-.72,0-1.22.16-1.56.48-.36.32-.54.9-.54,1.72v4.3h-2.16v-8.66h2.16v1.36c.26-.46.64-.84,1.1-1.1v-.02Z"/>
        <path class="cls-2" d="m180,105.58c0,1.36-1.06,2.42-2.46,2.42s-2.46-1.06-2.46-2.42,1.1-2.4,2.46-2.4,2.46,1.06,2.46,2.4Zm-4.3,0c0,1.06.78,1.9,1.88,1.9,1.04,0,1.8-.84,1.8-1.9s-.78-1.9-1.84-1.9-1.84.88-1.84,1.9Zm1.48,1.26h-.54v-2.4c.22-.04.52-.06.9-.06.46,0,.64.06.84.16.12.1.22.3.22.52,0,.26-.2.46-.48.54v.04c.22.1.36.26.46.58.06.36.12.52.16.58h-.58s-.12-.3-.2-.58c-.04-.26-.2-.38-.48-.38h-.26v1h-.04Zm0-1.36h.26c.3,0,.54-.1.54-.36,0-.22-.16-.36-.52-.36-.16,0-.26,0-.3.04v.68h.02Z"/>
      </g>
    </g>
  </g>
</svg>